<?xml version="1.0" encoding="UTF-8"?>
<!-- Generator: Adobe Illustrator 12.0.0, SVG Export Plug-In . SVG Version: 6.00 Build 51448)  -->
<!DOCTYPE svg PUBLIC "-//W3C//DTD SVG 1.1//EN" "http://www.w3.org/Graphics/SVG/1.1/DTD/svg11.dtd" [
	<!ENTITY ns_svg "http://www.w3.org/2000/svg">
	<!ENTITY ns_xlink "http://www.w3.org/1999/xlink">
]>
<svg version="1.1" id="Layer_1" xmlns="http://www.w3.org/2000/svg" xmlns:xlink="http://www.w3.org/1999/xlink" width="211.956" height="221.711" viewBox="0 0 211.956 221.711" overflow="visible" enable-background="new 0 0 211.956 221.711" xml:space="preserve">
<g>
	<g>
		<path fill="#FCD977" d="M203.679,116.412c0,54.5-44.188,98.682-98.685,98.682c-54.501,0-98.683-44.182-98.683-98.682    c0-13.904,2.932-27.787,8.642-40.465c2.688-5.969,6.331-11.139,9.599-16.751c3.651-6.271,0.479-8.593,2.425-14.978    c1.591-5.218,7.265-6.315,11.517-7.81c10.943-3.844,15.533-7.016,22.524-16.33c8.271-11.018,7.921-3.362,19.452-2.363    c11.814,1.027,24.501-9.551,36.594-10.014c8.174-0.311,10.295,5.872,16.731,7.541c6.353,1.648,12.963-4.045,19.704-0.176    c4.983,2.857,4.576,9.791,7.969,13.393c4.216,4.473,11.126,7.078,15.313,11.889c4.781,5.493,5.898,13.736,9.602,20.157    C196.643,78.296,203.679,95.459,203.679,116.412z"/>
		<path fill="none" stroke="#000000" stroke-width="8.0741" d="M203.679,116.412c0,54.5-44.188,98.682-98.685,98.682    c-54.501,0-98.683-44.182-98.683-98.682c0-18.601,5.304-37.007,15.254-52.724c3.058-4.831,5.265-6.28,6.432-11.634    c0.983-4.507-2.231-6.677,1.92-11.097c3.745-3.988,8.387-6.828,13.354-9.04c3.727-1.66,13.298-2.376,15.906-4.995    c5.393-5.417,2.42-16.343,15.683-14.495c10.008,1.393,6.247,6.712,16.705,1.377c6.292-3.209,42.878-13.536,41.956,1.133    c5.228-1.601,12.382-1.758,17.546,0.155c8.397,3.114,3.27,8.016,7.938,13.563c5.307,6.307,17.242,5.593,22.249,13.847    c2.836,4.672,0.491,6.267,1.146,10.07c1.193,6.944,6.997,12.121,10.438,18.806C199.978,85.253,203.679,100.813,203.679,116.412z"/>
		<path fill="#FF7F00" stroke="#8F0000" stroke-width="4.8427" d="M138.013,172.455c1.622,6.662-1.769,13.344-13.798,17.891    c-6.632,2.505-12.674,7.448-19.505,7.998c-3.274,0.265-3.708-0.463-7.335-1.314c-10.92-2.561-24.13-4.132-28.74-16.015    c-6.668-17.181,20.401-31.825,34.245-31.825C116.993,149.189,135.177,160.793,138.013,172.455z"/>
		<path d="M65.82,125.635c0,10.337-7.985,18.716-17.828,18.716c-9.848,0-17.832-8.379-17.832-18.716    c0-10.34,7.983-18.722,17.832-18.722C57.835,106.913,65.82,115.295,65.82,125.635z"/>
		<path d="M179.834,124.609c0,10.337-7.984,18.719-17.827,18.719c-9.849,0-17.833-8.382-17.833-18.719s7.984-18.719,17.833-18.719    C171.85,105.891,179.834,114.272,179.834,124.609z"/>
		<circle fill="#FFFFFF" cx="41.577" cy="119.634" r="4.71"/>
		<circle fill="#FFFFFF" cx="157.642" cy="119.298" r="4.374"/>
		<circle fill="#FFFFFF" cx="43.259" cy="130.063" r="2.355"/>
		<circle fill="#FFFFFF" cx="154.95" cy="130.063" r="1.682"/>
	</g>
	<path d="M101.309,170.387c4.024-0.789,15.51,8.337,15.707,12.536c0.182,3.832-9.157,8.857-12.734,9.094   c-3.419,0.229-14.339-3.984-15.007-7.879C88.686,180.642,98.148,171.001,101.309,170.387z"/>
	<path fill="none" stroke="#000000" stroke-width="5.3827" stroke-linecap="round" d="M62.86,91.262   c-3.741-2.957-9.508-3.977-14.176-4.339c-7.67-0.599-13.543,1.977-19.47,6.402"/>
	<path fill="none" stroke="#000000" stroke-width="5.3827" stroke-linecap="round" d="M142.432,77.371   c8.2-7.364,28.001-6.739,34.95,1.646"/>
</g>
</svg>